<svg version="1.1" xmlns="http://www.w3.org/2000/svg" xmlns:xlink="http://www.w3.org/1999/xlink" width="15" height="16" viewBox="0,0,240,256"><defs><clipPath id="clip-1"><rect x="0" y="0.94234" width="15" height="15" id="clip0_5582_38" fill="none" fill-rule="nonzero"></rect></clipPath><clipPath id="clip-2"><rect x="0" y="0.94234" width="15" height="15" id="clip1_5582_38" fill="none" fill-rule="nonzero"></rect></clipPath></defs><g fill="none" fill-rule="none" stroke="none" stroke-width="1" stroke-linecap="butt" stroke-linejoin="miter" stroke-miterlimit="10" stroke-dasharray="" stroke-dashoffset="0" font-family="none" font-weight="none" font-size="none" text-anchor="none" style="mix-blend-mode: normal"><g transform="translate(0,-7.07739) scale(16,16)"><g clip-path="url(#clip-1)"><g clip-path="url(#clip-2)"><path d="M10.625,9.17153c0.1658,0 0.3247,-0.07133 0.4419,-0.19831c0.1173,-0.12698 0.1831,-0.2992 0.1831,-0.47877c0,-0.17957 -0.0658,-0.35179 -0.1831,-0.47877c-0.1172,-0.12698 -0.2761,-0.19831 -0.4419,-0.19831c-0.1658,0 -0.3247,0.07133 -0.4419,0.19831c-0.1173,0.12698 -0.1831,0.2992 -0.1831,0.47877c0,0.17957 0.0658,0.35179 0.1831,0.47877c0.1172,0.12698 0.2761,0.19831 0.4419,0.19831zM10.625,11.8799c0.1658,0 0.3247,-0.0714 0.4419,-0.1983c0.1173,-0.127 0.1831,-0.2992 0.1831,-0.4788c0,-0.1796 -0.0658,-0.3518 -0.1831,-0.4788c-0.1172,-0.127 -0.2761,-0.1983 -0.4419,-0.1983c-0.1658,0 -0.3247,0.0713 -0.4419,0.1983c-0.1173,0.127 -0.1831,0.2992 -0.1831,0.4788c0,0.1796 0.0658,0.3518 0.1831,0.4788c0.1172,0.1269 0.2761,0.1983 0.4419,0.1983zM8.125,8.49445c0,0.17957 -0.06585,0.35179 -0.18306,0.47877c-0.11721,0.12698 -0.27618,0.19831 -0.44194,0.19831c-0.16576,0 -0.32473,-0.07133 -0.44194,-0.19831c-0.11721,-0.12698 -0.18306,-0.2992 -0.18306,-0.47877c0,-0.17957 0.06585,-0.35179 0.18306,-0.47877c0.11721,-0.12698 0.27618,-0.19831 0.44194,-0.19831c0.16576,0 0.32473,0.07133 0.44194,0.19831c0.11721,0.12698 0.18306,0.2992 0.18306,0.47877zM8.125,11.2028c0,0.1796 -0.06585,0.3518 -0.18306,0.4788c-0.11721,0.1269 -0.27618,0.1983 -0.44194,0.1983c-0.16576,0 -0.32473,-0.0714 -0.44194,-0.1983c-0.11721,-0.127 -0.18306,-0.2992 -0.18306,-0.4788c0,-0.1796 0.06585,-0.3518 0.18306,-0.4788c0.11721,-0.127 0.27618,-0.1983 0.44194,-0.1983c0.16576,0 0.32473,0.0713 0.44194,0.1983c0.11721,0.127 0.18306,0.2992 0.18306,0.4788zM4.375,9.17153c0.16576,0 0.32473,-0.07133 0.44194,-0.19831c0.11721,-0.12698 0.18306,-0.2992 0.18306,-0.47877c0,-0.17957 -0.06585,-0.35179 -0.18306,-0.47877c-0.11721,-0.12698 -0.27618,-0.19831 -0.44194,-0.19831c-0.16576,0 -0.32473,0.07133 -0.44194,0.19831c-0.11721,0.12698 -0.18306,0.2992 -0.18306,0.47877c0,0.17957 0.06585,0.35179 0.18306,0.47877c0.11721,0.12698 0.27618,0.19831 0.44194,0.19831zM4.375,11.8799c0.16576,0 0.32473,-0.0714 0.44194,-0.1983c0.11721,-0.127 0.18306,-0.2992 0.18306,-0.4788c0,-0.1796 -0.06585,-0.3518 -0.18306,-0.4788c-0.11721,-0.127 -0.27618,-0.1983 -0.44194,-0.1983c-0.16576,0 -0.32473,0.0713 -0.44194,0.1983c-0.11721,0.127 -0.18306,0.2992 -0.18306,0.4788c0,0.1796 0.06585,0.3518 0.18306,0.4788c0.11721,0.1269 0.27618,0.1983 0.44194,0.1983z" fill="#000000" fill-rule="nonzero"></path><path d="M4.375,0.87726c0.12432,0 0.24355,0.0535 0.33146,0.14873c0.0879,0.09524 0.13729,0.2244 0.13729,0.35908v0.51662c0.41375,-0.00881 0.86937,-0.00881 1.37062,-0.00881h2.57063c0.50187,0 0.9575,0 1.3712,0.00881v-0.51662c0,-0.13468 0.0494,-0.26384 0.1373,-0.35908c0.0879,-0.09523 0.2072,-0.14873 0.3315,-0.14873c0.1243,0 0.2435,0.0535 0.3315,0.14873c0.0879,0.09524 0.1372,0.2244 0.1372,0.35908v0.55995c0.1625,0.01354 0.3163,0.03047 0.4619,0.05146c0.7325,0.10698 1.3256,0.33177 1.7938,0.83823c0.4675,0.50713 0.675,1.14968 0.7737,1.94323c0.0956,0.77187 0.0956,1.75703 0.0956,3.00151v1.42999c0,1.24446 0,2.23036 -0.0956,3.00156c-0.0987,0.7935 -0.3062,1.436 -0.7737,1.9432c-0.4682,0.5064 -1.0613,0.7312 -1.7938,0.8382c-0.7125,0.1036 -1.62185,0.1036 -2.7706,0.1036h-2.57c-1.14875,0 -2.05875,0 -2.77063,-0.1036c-0.7325,-0.107 -1.32562,-0.3318 -1.79375,-0.8382c-0.4675,-0.5072 -0.67499,-1.1497 -0.77374,-1.9432c-0.09562,-0.7719 -0.09562,-1.7571 -0.09562,-3.00156v-1.42999c0,-1.24448 0,-2.23032 0.09562,-3.00151c0.09875,-0.79355 0.30625,-1.4361 0.77375,-1.94323c0.46813,-0.50646 1.06125,-0.73125 1.79375,-0.83823c0.14563,-0.02099 0.3,-0.03792 0.46188,-0.05146v-0.55995c0,-0.13468 0.04939,-0.26384 0.13729,-0.35908c0.08791,-0.09523 0.20714,-0.14873 0.33146,-0.14873zM3.56875,3.0033c-0.62813,0.09141 -0.99063,0.26339 -1.255,0.54979c-0.26438,0.28641 -0.42313,0.67912 -0.5075,1.36026c-0.01437,0.11511 -0.02625,0.23698 -0.03625,0.36495h11.46c-0.01,-0.12865 -0.0219,-0.24984 -0.0363,-0.36563c-0.0843,-0.68046 -0.2431,-1.07317 -0.5075,-1.35958c-0.2643,-0.2864 -0.6268,-0.45838 -1.2556,-0.54979c-0.6419,-0.09344 -1.48873,-0.09479 -2.6806,-0.09479h-2.5c-1.19188,0 -2.03813,0.00135 -2.68125,0.09479zM1.71875,7.81736c0,-0.57823 0,-1.0813 0.00812,-1.52344h11.54623c0.0081,0.44214 0.0081,0.94521 0.0081,1.52344v1.35417c0,1.29117 -0.0012,2.20867 -0.0875,2.90467c-0.0843,0.6805 -0.2431,1.0732 -0.5075,1.3596c-0.2643,0.2864 -0.6268,0.4584 -1.2556,0.5498c-0.6419,0.0934 -1.48873,0.0948 -2.6806,0.0948h-2.5c-1.19188,0 -2.03813,-0.0014 -2.68125,-0.0948c-0.62813,-0.0914 -0.99063,-0.2634 -1.255,-0.5498c-0.26438,-0.2864 -0.42313,-0.6791 -0.5075,-1.3603c-0.08625,-0.6953 -0.0875,-1.6128 -0.0875,-2.90397z" fill="#000000" fill-rule="evenodd"></path></g></g></g></g></svg>